<?xml version="1.0" encoding="utf-8"?>
<!-- Generator: Adobe Illustrator 25.2.0, SVG Export Plug-In . SVG Version: 6.00 Build 0)  -->
<svg version="1.1" xmlns="http://www.w3.org/2000/svg" xmlns:xlink="http://www.w3.org/1999/xlink" x="0px" y="0px"
	 viewBox="0 0 259.65 352.08" style="enable-background:new 0 0 259.65 352.08;" xml:space="preserve">
<style type="text/css">
	.st0{fill:#6D3504;}
</style>
<g id="Layer_1">
</g>
<g id="Layer_2">
</g>
<g id="Layer_3">
	<g>
		<g>
			<g>
				<path class="st0" d="M160.87,162.13c-3.92,1.22-6.84,2.32-8.91,2.38c-1.03,0.04-1.73-0.01-2.63,0.04
					c-0.89,0.04-2.11,0.05-3.39-0.33c-2.57-0.8-5.04-2.61-7.49-4.49c-2.35-1.89-4.62-4.07-6.69-6.33
					c3.8-1.15,14.89-5.03,12.41-10.58c-2.98-6.67-13.66-6.05-13.66-6.05s-10.68-0.62-13.66,6.05c-2.48,5.55,8.61,9.43,12.41,10.58
					c-2.07,2.26-4.33,4.44-6.69,6.33c-2.45,1.87-4.92,3.69-7.49,4.49c-1.28,0.38-2.5,0.37-3.39,0.33c-0.91-0.05-1.6,0-2.63-0.04
					c-2.07-0.05-5-1.15-8.91-2.38l-0.8,0.49c-0.03,1.9,0.49,3.67,1.49,5.35c0.96,1.68,2.58,3.19,4.74,4.29
					c2.13,1.11,4.95,1.58,7.44,1.12c2.51-0.44,4.55-1.59,6.24-2.72c3.36-2.31,5.82-4.88,7.74-7.68c1.38-1.98,2.54-4.02,3.51-6.12
					c0.98,2.1,2.13,4.14,3.51,6.12c1.92,2.81,4.38,5.38,7.74,7.68c1.69,1.13,3.73,2.28,6.24,2.72c2.49,0.47,5.31,0,7.44-1.12
					c2.15-1.09,3.78-2.61,4.74-4.29c1-1.67,1.52-3.44,1.49-5.35L160.87,162.13z"/>
				<g>
					<path class="st0" d="M229.56,182.43c12.18-14.82,16.7-33.51,16.7-53.85c0-13.72-5.3-26.69-14.06-38.24
						c1.19-4.45,2.31-10.7,3.39-19.22c1.57-12.38-3.26-27.14-20.12-35.88c-16.85-8.74-35.56-7.04-40.92,4.23
						c-1.86,3.92-2.57,7.13-2.4,9.84c-13.75-4.8-28.06-7.58-41.64-7.82c-13.58,0.24-27.89,3.02-41.64,7.82
						c0.17-2.71-0.54-5.92-2.4-9.84C81.1,28.21,62.4,26.51,45.54,35.25c-16.85,8.74-21.68,23.5-20.12,35.88
						c1.08,8.51,2.2,14.76,3.39,19.22c-8.77,11.54-14.06,24.52-14.06,38.24c0,20.34,4.53,39.03,16.7,53.85
						c-0.92,9.92-1.29,20.56-1.29,31.65c0,36.82,0.01,68.83,15.59,85.16c-0.01,0.35-0.05,0.68-0.05,1.03
						c0,13.61,11.04,24.65,24.65,24.65H95c10.39,0,19.26-6.43,22.88-15.53c4.06,0.25,8.28,0.38,12.62,0.38
						c4.34,0,8.56-0.13,12.62-0.38c3.63,9.09,12.5,15.53,22.88,15.53h24.65c13.61,0,24.65-11.04,24.65-24.65
						c0-0.35-0.04-0.69-0.05-1.03c15.59-16.33,15.59-48.34,15.59-85.16C230.85,202.99,230.48,192.35,229.56,182.43z M162.48,276.02
						v8.14c0,1.86-13.51,6.54-30.18,6.54c-16.67,0-30.18-4.68-30.18-6.54v-11.01c5.74-3.15,7.87-10.01,7.87-18
						c0-4.77-3.24-11.06-7.87-16.63v-16.59c0-1.86,13.51-3.36,30.18-3.36c16.67,0,30.18,1.51,30.18,3.36v10.11
						c3.17-0.19,8.08,0.14,12.16,3.21c-1.95,1.98-3.75,4.13-5.3,6.32c-1.47-0.96-3.36-1.3-5-1.35c-1.01-0.03-1.86,0.77-1.86,1.78
						v23.25c0,1.19,1.15,2.05,2.29,1.71c0.39-0.11,0.73-0.24,1.08-0.37c1.26,2.84,3.17,5.12,5.87,6.58
						C169.3,274.48,166.27,275.41,162.48,276.02z M130.51,203.07c-84.6-0.46-107.7-33.62-107.7-74.49
						c0-40.67,58.91-73.7,107.7-74.48c48.78,0.78,107.7,33.81,107.7,74.48C238.2,169.45,215.11,202.62,130.51,203.07z"/>
					<path class="st0" d="M139.62,222.8c-13.95-3.63-33.39,1.72-33.39,3.99c0,2.27,11.69,4.11,26.1,4.11s26.1-1.84,26.1-4.11
						C158.44,224.51,150.65,225.66,139.62,222.8z"/>
				</g>
				<path class="st0" d="M94.59,108.68c-1.46-4.85-5.73-6.99-10.8-7.74c-11.97-1.79-54.33,27.94-38.29,57.29s43.66,7.35,39.23-8.43
					c-3.33-11.84,3.98-24.65,7.85-30.31C94.76,116.27,95.69,112.35,94.59,108.68z M70.48,131.48c-4.74,0-8.58-3.56-8.58-7.95
					c0-4.39,3.84-7.95,8.58-7.95c4.74,0,8.58,3.56,8.58,7.95C79.06,127.92,75.22,131.48,70.48,131.48z"/>
				<path class="st0" d="M177.23,100.94c-5.07,0.76-9.34,2.89-10.8,7.74c-1.1,3.67-0.17,7.59,2.02,10.81
					c3.86,5.67,11.17,18.47,7.85,30.31c-4.44,15.78,23.19,37.79,39.23,8.43S189.19,99.15,177.23,100.94z M190.53,131.48
					c-4.74,0-8.58-3.56-8.58-7.95c0-4.39,3.84-7.95,8.58-7.95c4.74,0,8.58,3.56,8.58,7.95
					C199.12,127.92,195.27,131.48,190.53,131.48z"/>
			</g>
		</g>
	</g>
</g>
<g id="Layer_4">
</g>
</svg>
